HIERARCHY
ROOT Hips
{
	OFFSET 0.00000 0.00000 0.00000
	CHANNELS 6 Xposition Yposition Zposition Zrotation Yrotation Xrotation 
	JOINT LHipJoint
	{
		OFFSET 0 0 0
		CHANNELS 3 Zrotation Yrotation Xrotation
		JOINT LeftHip
		{
			OFFSET 1.56857 -1.73443 1.15205
			CHANNELS 3 Zrotation Yrotation Xrotation
			JOINT LeftKnee
			{
				OFFSET 2.39362 -6.57643 0.00000
				CHANNELS 3 Zrotation Yrotation Xrotation
				JOINT LeftAnkle
				{
					OFFSET 2.50952 -6.89485 0.00000
					CHANNELS 3 Zrotation Yrotation Xrotation
					JOINT LeftToe
					{
						OFFSET 0.17171 -0.47178 1.88682
						CHANNELS 3 Zrotation Yrotation Xrotation
						End Site
						{
							OFFSET 0.00000 -0.00000 0.98146
						}
					}
				}
			}
		}
	}
	JOINT RHipJoint
	{
		OFFSET 0 0 0
		CHANNELS 3 Zrotation Yrotation Xrotation
		JOINT RightHip
		{
			OFFSET -1.28153 -1.73443 1.15205
			CHANNELS 3 Zrotation Yrotation Xrotation
			JOINT RightKnee
			{
				OFFSET -2.26861 -6.23296 0.00000
				CHANNELS 3 Zrotation Yrotation Xrotation
				JOINT RightAnkle
				{
					OFFSET -2.54143 -6.98254 0.00000
					CHANNELS 3 Zrotation Yrotation Xrotation
					JOINT RightToe
					{
						OFFSET -0.23309 -0.64041 1.93119
						CHANNELS 3 Zrotation Yrotation Xrotation
						End Site
						{
							OFFSET -0.00000 -0.00000 1.02013
						}
					}
				}
			}
		}
	}
	JOINT lowerback
	{
		OFFSET 0 0 0
		CHANNELS 3 Zrotation Yrotation Xrotation
		JOINT Chest
		{
			OFFSET -0.07096 2.10460 -0.27878
			CHANNELS 3 Zrotation Yrotation Xrotation
			JOINT Chest2
			{
				OFFSET -0.00826 2.13662 -0.08279
				CHANNELS 3 Zrotation Yrotation Xrotation
				JOINT lowerneck
				{
					OFFSET 0 0 0
					CHANNELS 3 Zrotation Yrotation Xrotation
					JOINT Neck
					{
						OFFSET 0.03239 1.77799 0.24435
						CHANNELS 3 Zrotation Yrotation Xrotation
						JOINT Head
						{
							OFFSET 0.01026 1.74194 -0.49664
							CHANNELS 3 Zrotation Yrotation Xrotation
							End Site
							{
								OFFSET 0.00170 1.83057 -0.19653
							}
						}
					}
				}
				JOINT LeftCollar
				{
					OFFSET 0 0 0
					CHANNELS 3 Zrotation Yrotation Xrotation
					JOINT LeftShoulder
					{
						OFFSET 3.19178 1.35907 -0.31412
CHANNELS 3 Zrotation Xrotation Yrotation
						JOINT LeftElbow
						{
OFFSET 0 -4.852470 -0.000000
CHANNELS 3 Zrotation Xrotation Yrotation
							JOINT LeftWrist
							{
OFFSET 0 -3.555840 0.000000
CHANNELS 3 Zrotation Xrotation Yrotation
								JOINT lhand
								{
									OFFSET 0 0 0
CHANNELS 3 Zrotation Xrotation Yrotation
									JOINT LFingers
									{
OFFSET 0 -0.693200 0.000000
CHANNELS 3 Zrotation Xrotation Yrotation
										End Site
										{
OFFSET 0 -0.558880 0.000000
										}
									}
								}
								JOINT LThumb
								{
OFFSET 0 0.000000 0.000000
CHANNELS 3 Zrotation Xrotation Yrotation
									End Site
									{
OFFSET 0 -0.567410 0.567410
									}
								}
							}
						}
					}
				}
				JOINT RightCollar
				{
					OFFSET 0 0 0
					CHANNELS 3 Zrotation Yrotation Xrotation
					JOINT RightShoulder
					{
						OFFSET -3.28999 1.24191 -0.26899
CHANNELS 3 Zrotation Xrotation Yrotation
						JOINT RightElbow
						{
OFFSET 0 -4.644620 0.000000
CHANNELS 3 Zrotation Xrotation Yrotation
							JOINT RightWrist
							{
OFFSET 0 -3.407030 0.000000
CHANNELS 3 Zrotation Xrotation Yrotation
								JOINT rhand
								{
									OFFSET 0 0 0
CHANNELS 3 Zrotation Xrotation Yrotation
									JOINT RFingers
									{
OFFSET 0 -0.619580 0.000000
CHANNELS 3 Zrotation Xrotation Yrotation
										End Site
										{
OFFSET 0 -0.499520 0.000000
										}
									}
								}
								JOINT RThumb
								{
OFFSET 0 0.000000 0.000000
CHANNELS 3 Zrotation Xrotation Yrotation
									End Site
									{
OFFSET 0 -0.507150 0.507150
									}
								}
							}
						}
					}
				}
			}
		}
	}
}
MOTION
Frames: 11
Frame Time: 0.008333333333333333
44.748508 17.150479 5.760931 357.116868 148.295205 359.382467 0.000000 0.000000 0.000000 -29.236483 -1.052616 17.184911 0.238044 3.139763 8.668098 0.665286 -4.428261 -14.549749 0.016909 0.791852 2.176560 0.000000 0.000000 0.000000 11.216165 -2.049278 -16.470340 -0.128141 -2.307186 6.355469 0.376100 12.808329 12.092386 -0.386804 -3.991372 11.052649 -12.934229 1.644896 5.260476 -2.452380 2.641789 6.852679 4.597446 1.084745 3.939886 9.962957 4.187006 -19.563876 -1.774286 4.058489 26.966079 -1.620540 2.876216 12.462022 0.000000 0.000000 0.000000 87.620833 -47.964923 -4.116379 24.867383 -36.068121 8.211706 17.573705 -14.784415 24.217019 0.000000 0.000000 0.000000 -7.125000 0.000000 0.000000 -7.231149 4.893025 -6.642224 0.000000 0.000000 0.000000 -84.150169 -55.074688 2.753122 -22.814134 -33.884971 -7.034404 -5.940595 -1.550231 31.782377 0.000000 0.000000 0.000000 7.125000 0.000000 0.000000 29.471738 59.392987 -10.942049
45.022086 17.044148 5.295986 355.961095 151.832608 358.513018 0.000000 0.000000 0.000000 -29.325359 -0.174231 19.163280 0.256967 3.261287 9.007111 0.540816 -7.617734 -13.350545 0.001318 0.070799 0.194553 0.000000 0.000000 0.000000 10.817260 -0.341589 -17.277735 -0.183426 -2.757501 7.604365 0.247286 12.849326 14.702797 -0.361438 -3.860717 10.685220 -13.012238 1.332570 4.790832 -2.124005 2.284729 6.878898 5.014575 0.868762 4.282297 10.099580 4.531273 -19.937444 -1.980406 4.559249 27.249423 -1.627273 3.094548 12.695544 0.000000 0.000000 0.000000 86.882877 -48.116414 -4.325665 24.648144 -35.841949 8.083039 17.665431 -14.705840 24.269148 0.000000 0.000000 0.000000 -7.125000 0.000000 0.000000 -7.178578 4.826111 -6.602298 0.000000 0.000000 0.000000 -84.423567 -55.172870 2.602520 -22.783295 -33.850924 -7.017218 -5.627725 -1.750222 31.701250 0.000000 0.000000 0.000000 7.125000 0.000000 0.000000 29.711016 59.252157 -10.939228
45.319760 16.931799 4.770257 354.092720 155.472027 357.180376 0.000000 0.000000 0.000000 -30.475245 -0.006746 22.369851 0.233372 3.109263 8.583075 0.323482 -10.097330 -11.540442 0.001303 0.146905 0.403684 0.000000 0.000000 0.000000 9.277472 1.065631 -16.664309 -0.267710 -3.328282 9.194112 -0.085709 9.854799 15.367243 -1.958205 -8.770473 25.085230 -13.602815 1.317298 4.564080 -1.999665 2.256108 6.637478 5.475438 0.839255 4.147193 10.130315 4.487924 -19.772795 -1.830130 4.484526 27.107308 -1.588100 3.094031 12.597197 0.000000 0.000000 0.000000 85.913087 -48.389677 -5.496930 24.707466 -35.903494 8.117743 17.576978 -14.647233 24.225671 0.000000 0.000000 0.000000 -7.125000 0.000000 0.000000 -7.229643 4.883776 -6.642167 0.000000 0.000000 0.000000 -84.012577 -54.316695 3.276951 -22.883846 -33.961519 -7.073309 -5.415477 -2.002093 31.880448 0.000000 0.000000 0.000000 7.125000 0.000000 0.000000 30.084166 59.357653 -11.169726
45.619313 16.823858 4.214876 352.503838 159.821583 356.637524 0.000000 0.000000 0.000000 -30.864711 0.049710 24.401288 0.261856 3.291908 9.092545 0.017540 -12.285523 -8.853841 0.000652 -0.065386 -0.179610 0.000000 0.000000 0.000000 7.662277 2.323808 -15.272920 -0.560252 -4.793621 13.321131 0.216070 8.227782 2.546019 -0.300578 -3.524331 9.742256 -14.055565 0.793525 4.097207 -1.879413 1.536349 6.156727 5.872614 0.468417 4.026430 10.214899 4.809400 -20.400902 -1.686071 4.871387 27.774317 -1.458913 3.322673 13.024816 0.000000 0.000000 0.000000 84.889293 -48.021945 -6.089804 24.395107 -35.579275 7.935323 17.739023 -14.046990 24.273329 0.000000 0.000000 0.000000 -7.125000 0.000000 0.000000 -7.133656 4.810740 -6.562353 0.000000 0.000000 0.000000 -83.232940 -54.581116 4.008319 -22.943853 -34.027250 -7.106871 -5.397138 -1.965972 32.178101 0.000000 0.000000 0.000000 7.125000 0.000000 0.000000 30.375445 59.607746 -11.475217
45.893847 16.804407 3.653579 353.448205 163.376896 357.167977 0.000000 0.000000 0.000000 -28.902550 -0.635498 26.380154 0.307807 3.566301 9.859566 -0.281315 -13.110986 -4.997685 0.075970 1.530978 4.215540 0.000000 0.000000 0.000000 9.369611 7.385702 -11.729344 -0.748221 -5.522694 15.406262 -0.098358 1.856945 -5.543850 -0.087016 -1.888240 5.197319 -12.147428 0.486001 3.386056 -0.872706 1.072507 5.874857 5.897931 0.240935 4.163475 9.912704 4.715761 -20.796244 -2.061265 4.856627 27.549949 -1.554182 3.211834 13.008653 0.000000 0.000000 0.000000 82.858892 -47.621399 -6.568916 24.419781 -35.605004 7.949605 17.981038 -14.000583 23.449567 0.000000 0.000000 0.000000 -7.125000 0.000000 0.000000 -6.921029 5.615850 -6.257506 0.000000 0.000000 0.000000 -81.922677 -55.202878 3.669126 -22.751472 -33.815908 -6.999504 -6.282828 -0.881612 31.985389 0.000000 0.000000 0.000000 7.125000 0.000000 0.000000 29.313150 59.646009 -11.056776
46.106775 16.943639 3.135637 354.073992 167.389207 357.378633 0.000000 0.000000 0.000000 -26.930381 -1.396571 27.258719 0.411914 4.119853 11.414110 -0.419656 -11.852792 0.870540 0.886722 6.001882 16.790083 0.000000 0.000000 0.000000 9.761688 6.331323 -9.971783 -0.977254 -6.293057 17.637145 -0.285628 1.397816 -9.702927 -0.130855 -2.331313 6.422225 -10.124081 0.188431 3.639939 -0.164137 0.562497 5.661789 5.513411 0.052751 3.843217 10.322747 4.521709 -21.639559 -2.619199 4.493282 27.842556 -1.891956 3.019953 13.302733 0.000000 0.000000 0.000000 81.609941 -47.528482 -7.569730 24.140995 -35.313011 7.787872 18.314661 -15.046904 24.082325 0.000000 0.000000 0.000000 -7.125000 0.000000 0.000000 -6.763796 4.918075 -6.203349 0.000000 0.000000 0.000000 -80.042526 -55.194941 3.967323 -22.733133 -33.795694 -6.989295 -6.235650 -1.250164 32.001385 0.000000 0.000000 0.000000 7.125000 0.000000 0.000000 29.374977 59.649030 -11.084588
46.308885 17.112574 2.632005 353.274406 171.756102 357.768855 0.000000 0.000000 0.000000 -25.909252 -1.835074 27.150499 0.479728 4.441788 12.322861 -0.283530 -9.774869 6.413646 1.716019 8.234791 23.436882 0.000000 0.000000 0.000000 8.575085 4.107211 -7.232585 -0.878006 -5.972733 16.705687 -0.434689 0.281394 -12.362360 -0.350808 -3.805474 10.529911 -9.845977 -0.330133 3.462712 0.562254 -0.183416 5.404560 6.127233 -0.332519 3.794151 9.926116 4.344454 -22.409353 -3.497627 4.452268 27.420233 -2.176182 2.789621 13.286335 0.000000 0.000000 0.000000 81.408839 -47.327127 -8.416118 23.568844 -34.704672 7.459799 16.911201 -13.905907 24.079511 0.000000 0.000000 0.000000 -7.125000 0.000000 0.000000 -7.629229 5.130941 -6.979978 0.000000 0.000000 0.000000 -80.785672 -55.077447 4.384732 -22.831784 -33.904362 -7.044279 -5.269359 -1.828922 32.279750 0.000000 0.000000 0.000000 7.125000 0.000000 0.000000 30.597173 59.664972 -11.611183
46.470903 17.205565 2.150972 352.383062 176.090033 359.149808 0.000000 0.000000 0.000000 -24.698166 -2.315803 26.505300 0.458541 4.343718 12.045752 0.067552 -7.228947 11.713741 2.611982 10.028538 29.078137 0.000000 0.000000 0.000000 7.118798 1.403003 -5.080506 -0.664634 -5.212987 14.517148 -0.594960 -0.422147 -14.731448 -0.592196 -4.926193 13.698236 -9.262627 -0.770578 2.630845 1.210190 -0.812197 4.781936 6.475508 -0.648329 3.703417 8.997408 3.980408 -23.235539 -3.886028 4.208877 27.043103 -2.214465 2.489234 13.257023 0.000000 0.000000 0.000000 81.765150 -47.637251 -8.611391 22.763671 -33.829272 7.006284 16.690851 -12.393237 24.917413 0.000000 0.000000 0.000000 -7.125000 0.000000 0.000000 -7.825579 4.312904 -7.284418 0.000000 0.000000 0.000000 -81.946325 -54.616668 4.174673 -22.853096 -33.927743 -7.056086 -5.106900 -1.446645 32.311540 0.000000 0.000000 0.000000 7.125000 0.000000 0.000000 30.788600 59.654613 -11.684893
46.604432 17.235591 1.701022 351.588033 179.440000 360.435803 0.000000 0.000000 0.000000 -23.276565 -2.425537 25.908634 0.425309 4.185751 11.599737 0.470555 -5.586834 16.206800 2.529361 9.889697 28.621639 0.000000 0.000000 0.000000 6.123035 -0.832038 -3.394647 -0.527336 -4.653452 12.922739 -0.737569 -1.329897 -16.757119 -0.369937 -3.906628 10.814139 -8.421965 -0.931878 2.229315 1.719431 -1.124003 4.083995 6.530566 -0.779734 3.224553 8.488982 3.689372 -24.378754 -4.702440 4.086136 27.113527 -2.472469 2.240976 13.512349 0.000000 0.000000 0.000000 82.039970 -47.450654 -7.910293 22.646806 -33.700289 6.941294 17.387121 -12.920007 24.967154 0.000000 0.000000 0.000000 -7.125000 0.000000 0.000000 -7.403901 4.157576 -6.906709 0.000000 0.000000 0.000000 -82.703764 -54.320426 3.163943 -22.991627 -34.079638 -7.133581 -6.209262 -1.565596 32.346994 0.000000 0.000000 0.000000 7.125000 0.000000 0.000000 29.719769 59.939930 -11.438353
46.693526 17.264719 1.288464 351.232509 181.779372 361.199628 0.000000 0.000000 0.000000 -22.791580 -3.221627 26.131106 0.423626 4.177458 11.576334 0.811342 -2.890890 18.302103 2.613353 10.040986 29.109745 0.000000 0.000000 0.000000 5.765998 -2.731814 -1.756144 -0.445480 -4.282202 11.872019 -0.851156 -1.581221 -18.068169 -0.214489 -2.969784 8.195462 -6.826593 -0.710508 2.127226 2.135478 -1.205915 3.802464 6.052488 -0.916060 2.937190 8.060915 3.717349 -25.363015 -5.030701 4.232497 26.868511 -2.499942 2.171815 13.618701 0.000000 0.000000 0.000000 82.721195 -47.110168 -6.356630 22.668612 -33.724442 6.953421 18.974298 -14.780480 24.663327 0.000000 0.000000 0.000000 -7.125000 0.000000 0.000000 -6.407196 4.219172 -5.956441 0.000000 0.000000 0.000000 -83.119995 -55.027506 1.031668 -22.822161 -33.893697 -7.038915 -7.451804 -1.210215 32.733699 0.000000 0.000000 0.000000 7.125000 0.000000 0.000000 28.827586 60.564882 -11.492806
46.759373 17.300347 0.896432 350.413482 183.679234 362.083920 0.000000 0.000000 0.000000 -22.517173 -3.315350 25.536792 0.450380 4.305368 11.937387 1.208521 -1.902449 21.539692 2.257940 9.383916 27.003648 0.000000 0.000000 0.000000 4.837648 -4.283235 -0.334130 -0.371131 -3.912203 10.829913 -0.929924 -1.659183 -18.886603 -0.237190 -3.111531 8.591072 -6.032677 -0.768038 2.139910 2.539883 -1.262448 3.273388 6.030839 -0.878942 2.374676 7.665370 4.298703 -25.752165 -5.903580 4.411681 26.993451 -2.846247 1.686147 13.795555 0.000000 0.000000 0.000000 81.961323 -46.361236 -5.659471 22.805424 -33.875347 7.029531 19.844213 -15.527011 24.288985 0.000000 0.000000 0.000000 -7.125000 0.000000 0.000000 -5.839299 4.463115 -5.395800 0.000000 0.000000 0.000000 -83.332888 -56.227290 0.181240 -22.445959 -33.477349 -6.830221 -7.686512 -1.609600 32.814626 0.000000 0.000000 0.000000 7.125000 0.000000 0.000000 28.665627 60.690720 -11.508492
